HIERARCHY
ROOT RootJoint
{
    OFFSET   0.000000   0.000000   0.000000
    CHANNELS 6 Xposition Yposition Zposition Xrotation Yrotation Zrotation
    JOINT pelvis_lowerback
    {
        OFFSET   0.000000   0.093605   0.000000
        CHANNELS 3 Xrotation Yrotation Zrotation
        JOINT lowerback_torso
        {
            OFFSET   0.000000   0.100000   0.000000
            CHANNELS 3 Xrotation Yrotation Zrotation
            JOINT torso_head
            {
                OFFSET   0.000000   0.282350   0.000000
                CHANNELS 3 Xrotation Yrotation Zrotation
                End Site
                {
                    OFFSET   0.000000   0.192650   0.000000
                }
            }
            JOINT rTorso_Clavicle
            {
                OFFSET  -0.001000   0.157500   0.000000
                CHANNELS 3 Xrotation Yrotation Zrotation
                JOINT rShoulder
                {
                    OFFSET  -0.117647   0.000000   0.000000
                    CHANNELS 3 Xrotation Yrotation Zrotation
                    JOINT rElbow
                    {
                        OFFSET  -0.245000   0.000000   0.000000
                        CHANNELS 3 Xrotation Yrotation Zrotation
                        JOINT rWrist
                        {
                            OFFSET  -0.240000   0.000000   0.000000
                            CHANNELS 3 Xrotation Yrotation Zrotation
                            End Site
                            {
                                OFFSET  -0.116353  -0.002500   0.000000
                            }
                        }
                    }
                }
            }
            JOINT lTorso_Clavicle
            {
                OFFSET   0.001000   0.157500   0.000000
                CHANNELS 3 Xrotation Yrotation Zrotation
                JOINT lShoulder
                {
                    OFFSET   0.117647   0.000000   0.000000
                    CHANNELS 3 Xrotation Yrotation Zrotation
                    JOINT lElbow
                    {
                        OFFSET   0.245000   0.000000   0.000000
                        CHANNELS 3 Xrotation Yrotation Zrotation
                        JOINT lWrist
                        {
                            OFFSET   0.240000   0.000000   0.000000
                            CHANNELS 3 Xrotation Yrotation Zrotation
                            End Site
                            {
                                OFFSET   0.116353  -0.002500   0.000000
                            }
                        }
                    }
                }
            }
        }
    }
    JOINT rHip
    {
        OFFSET  -0.100000  -0.051395   0.000000
        CHANNELS 3 Xrotation Yrotation Zrotation
        JOINT rKnee
        {
            OFFSET   0.000000  -0.410000   0.000000
            CHANNELS 3 Xrotation Yrotation Zrotation
            JOINT rAnkle
            {
                OFFSET   0.000000  -0.390000   0.000000
                CHANNELS 3 Xrotation Yrotation Zrotation
                JOINT rToeJoint
                {
                    OFFSET   0.000000  -0.050000   0.130000
                    CHANNELS 3 Xrotation Yrotation Zrotation
                    End Site
                    {
                        OFFSET  -0.010000   0.002000   0.060000
                    }
                }
            }
        }
    }
    JOINT lHip
    {
        OFFSET   0.100000  -0.051395   0.000000
        CHANNELS 3 Xrotation Yrotation Zrotation
        JOINT lKnee
        {
            OFFSET   0.000000  -0.410000   0.000000
            CHANNELS 3 Xrotation Yrotation Zrotation
            JOINT lAnkle
            {
                OFFSET   0.000000  -0.390000   0.000000
                CHANNELS 3 Xrotation Yrotation Zrotation
                JOINT lToeJoint
                {
                    OFFSET   0.000000  -0.050000   0.130000
                    CHANNELS 3 Xrotation Yrotation Zrotation
                    End Site
                    {
                        OFFSET   0.010000   0.002000   0.060000
                    }
                }
            }
        }
    }
}
MOTION
Frames: 11
Frame Time:   0.008333
 -2.763607   0.894980   5.270913 -27.166276 -41.846836  -3.094451  15.875173   1.777128  -5.508552   1.900665  -0.694266  -1.268791   1.665180  -6.828634   0.896730   4.038469  -3.875236   4.558314  12.925432  -0.327902  44.416480  -0.004806  39.216938   0.001861   4.199850   1.279697 -11.156620   5.291722   2.430025  -5.045702   2.634110  -4.401303 -41.934169  -0.000694 -49.864193   0.000263   2.567489  -3.133840  13.161999  -1.712400  -9.252338  -8.842947  34.966251  -0.001302  -0.006138 -18.842888 -15.738536  -6.822910  -0.019705  -0.000759   0.000017 -41.667334   2.920959  18.792183  80.589705  -0.008683  -0.001757  -1.364469   8.209791  -4.526620  -6.146399  -0.023683   0.009395
 -2.765049   0.894912   5.272955 -28.032101 -42.500914  -3.482935  16.482948   1.824562  -5.965479   1.826567  -0.764265  -1.351906   1.783594  -6.880606   0.889035   4.031678  -3.545110   4.672655  12.487550  -0.528934  43.615177  -0.011587  39.900170   0.006937   4.165146   1.136383 -11.308942   5.423958   2.500236  -5.137817   2.357629  -4.279846 -41.793330   0.000723 -50.438510   0.001887   2.483135  -2.911483  13.390383  -1.263052  -9.032659  -9.285074  35.376100  -0.001372  -0.006835 -19.247585 -15.187599  -6.379287   0.061049  -0.000860   0.000019 -43.733908   2.185490  19.846178  79.290380  -0.001037  -0.007510  -1.552396   8.222545  -4.536491  -5.642190  -0.018348   0.008732
 -2.766391   0.894776   5.274956 -28.868366 -43.124123  -3.913228  17.079619   1.844439  -6.377038   1.753324  -0.834538  -1.438174   1.898541  -6.931018   0.881483   3.980528  -3.200882   4.709408  12.034189  -0.691089  42.805765  -0.017580  40.568242   0.011015   4.159953   1.167500 -11.575052   5.528664   2.540440  -5.209106   2.081977  -4.190930 -41.662049   0.002198 -51.001893   0.003601   2.435461  -2.839553  13.608832  -0.837162  -8.835079  -9.674753  35.765524  -0.001419  -0.007267 -19.631104 -14.648410  -5.951139   0.138599  -0.000919   0.000019 -45.725590   1.473143  20.835328  77.815323   0.004636  -0.012033  -1.736632   8.230193  -4.547654  -5.167494  -0.013623   0.007814
 -2.767715   0.894603   5.277023 -29.697431 -43.722605  -4.381759  17.654578   1.855705  -6.765554   1.688808  -0.899271  -1.532457   2.010896  -6.978764   0.876648   3.910456  -2.856787   4.701120  11.588365  -0.827271  42.014401  -0.022293  41.201145   0.013994   4.168358   1.264098 -11.912769   5.610652   2.556887  -5.267648   1.810949  -4.123581 -41.535222   0.003525 -51.536329   0.005043   2.405075  -2.832809  13.816351  -0.410917  -8.643850 -10.028075  36.137082  -0.001430  -0.007478 -20.000707 -14.127731  -5.549266   0.209451  -0.000928   0.000019 -47.626671   0.771703  21.736713  76.352844   0.008242  -0.014526  -1.912721   8.236512  -4.558135  -4.737203  -0.009716   0.006700
 -2.769068   0.894421   5.279188 -30.520712 -44.300691  -4.879408  18.200884   1.862902  -7.143354   1.630133  -0.957671  -1.636540   2.118397  -7.023379   0.872777   3.833289  -2.522525   4.669025  11.159417  -0.943922  41.254822  -0.025729  41.796352   0.016065   4.183208   1.384784 -12.285312   5.677564   2.559843  -5.317654   1.549623  -4.069766 -41.413305   0.004669 -52.039242   0.006146   2.383245  -2.855290  14.016204   0.020664  -8.454793 -10.354255  36.487824  -0.001406  -0.007506 -20.358460 -13.625564  -5.174109   0.273299  -0.000898   0.000018 -49.434162   0.084239  22.547116  74.965384   0.010146  -0.015304  -2.079066   8.241959  -4.567841  -4.350624  -0.006583   0.005517
 -2.770471   0.894243   5.281447 -31.334632 -44.860631  -5.399203  18.715228   1.867277  -7.515489   1.574537  -1.010327  -1.750227   2.219533  -7.064971   0.868668   3.755024  -2.202919   4.625529  10.751512  -1.044820  40.534129  -0.028021  42.354433   0.017404   4.201458   1.514325 -12.670518   5.734516   2.555531  -5.361827   1.300931  -4.024742 -41.297194   0.005637 -52.510592   0.006939   2.365891  -2.890901  14.209130   0.456973  -8.266929 -10.656595  36.814642  -0.001356  -0.007381 -20.704399 -13.141108  -4.823852   0.330692  -0.000845   0.000017 -51.149138  -0.585289  23.270305  73.670651   0.010768  -0.014879  -2.235457   8.246710  -4.576829  -4.004456  -0.004117   0.004364
 -2.771930   0.894077   5.283783 -32.134755 -45.403649  -5.936033  19.196996   1.869156  -7.883537   1.520500  -1.058135  -1.872296   2.313662  -7.103748   0.863759   3.678751  -1.900029   4.577692  10.366272  -1.132552  39.855219  -0.029344  42.876948   0.018154   4.221680   1.646452 -13.055630   5.784481   2.547224  -5.401855   1.066039  -3.985902 -41.187437   0.006447 -52.951415   0.007481   2.350955  -2.931824  14.394846   0.895055  -8.080336 -10.935816  37.116047  -0.001286  -0.007136 -21.038131 -12.673481  -4.496345   0.382380  -0.000778   0.000016 -52.774002  -1.233516  23.912112  72.470283   0.010477  -0.013698  -2.382177   8.250859  -4.585176  -3.694831  -0.002202   0.003302
 -2.772802   0.893904   5.286288 -32.845273 -46.141624  -6.421917  19.617786   1.870137  -8.171416   1.422756  -1.113164  -2.000408   2.378173  -7.041754   0.714684   3.576785  -1.604734   4.632937   9.556860  -1.551788  38.728063  -0.045088  43.953653   0.031577   4.240080   1.608004 -13.028416   5.838336   2.553620  -5.546676   0.988899  -3.965913 -41.061501   0.010013 -53.643735   0.011677   2.319292  -2.768314  14.629327   1.099529  -7.859000 -11.320236  37.500924  -0.001429  -0.007935 -21.330362 -12.010799  -4.213333   0.414774  -0.000663   0.000014 -54.312423  -1.614266  24.567451  71.277309   0.008691  -0.011688  -2.341957   8.028736  -4.998758  -3.306812   0.001289   0.001454
 -2.773470   0.893738   5.288852 -33.523136 -46.895126  -6.929388  20.004636   1.843646  -8.389316   1.310458  -1.174200  -2.121551   2.445090  -6.984475   0.581818   3.424266  -1.299589   4.588286   8.736114  -1.913864  37.576110  -0.058469  44.988881   0.042618   4.284766   1.743768 -13.243809   5.879219   2.530430  -5.697870   0.908835  -3.972497 -40.962768   0.013268 -54.308635   0.015637   2.314152  -2.699703  14.799893   1.257728  -7.615961 -11.680468  37.871485  -0.001515  -0.008505 -21.593511 -11.348074  -3.939439   0.442696  -0.000560   0.000012 -55.723878  -1.932053  25.148531  70.157664   0.006416  -0.009157  -2.304000   7.814368  -5.386674  -2.934610   0.003977  -0.000291
 -2.774079   0.893585   5.291404 -34.160728 -47.634327  -7.448130  20.355600   1.802191  -8.572085   1.188085  -1.242010  -2.232715   2.509704  -6.932598   0.467360   3.259037  -0.995014   4.493194   7.940448  -2.228795  36.452015  -0.068378  45.964176   0.050551   4.342621   1.939001 -13.580189   5.901176   2.481790  -5.838390   0.820435  -3.998212 -40.872699   0.015872 -54.937782   0.018843   2.323493  -2.686937  14.936917   1.389490  -7.366207 -12.000494  38.211880  -0.001541  -0.008724 -21.833345 -10.707405  -3.675112   0.468506  -0.000474   0.000010 -57.020999  -2.212332  25.653710  69.123827   0.004016  -0.006551  -2.270123   7.611803  -5.748094  -2.596023   0.005830  -0.001745
 -2.774693   0.893442   5.293898 -34.754763 -48.351372  -7.972233  20.673072   1.750953  -8.735910   1.058681  -1.316025  -2.335669   2.569846  -6.884856   0.365506   3.095266  -0.700752   4.376634   7.181846  -2.505178  35.376916  -0.074963  46.878605   0.055683   4.405820   2.151779 -13.967125   5.906857   2.416881  -5.962329   0.725451  -4.036089 -40.784913   0.017855 -55.531356   0.021264   2.342458  -2.711387  15.063603   1.499916  -7.117742 -12.275532  38.519097  -0.001525  -0.008643 -22.053665 -10.092106  -3.419839   0.493563  -0.000403   0.000009 -58.213802  -2.460443  26.091549  68.175827   0.001688  -0.004127  -2.239735   7.420755  -6.084755  -2.289023   0.007026  -0.002876
